<?xml version="1.0" encoding="UTF-8"?>
<svg xmlns="http://www.w3.org/2000/svg" xmlns:xlink="http://www.w3.org/1999/xlink" width="24px" height="24px" viewBox="0 0 24 24" version="1.1">
<g id="surface1">
<path style=" stroke:none;fill-rule:nonzero;fill:rgb(100%,100%,100%);fill-opacity:1;" d="M 18 12 L 22.789062 3.558594 C 22.933594 3.304688 22.933594 2.996094 22.789062 2.738281 C 22.652344 2.480469 22.390625 2.3125 22.101562 2.289062 L 17.101562 1.921875 L 17 1.921875 C 16.765625 1.917969 16.542969 2.011719 16.378906 2.179688 L 12 6.761719 L 7.578125 2.179688 C 7.425781 2.023438 7.21875 1.929688 7 1.921875 L 6.898438 1.921875 L 1.898438 2.289062 C 1.609375 2.3125 1.347656 2.480469 1.210938 2.738281 C 1.066406 2.996094 1.066406 3.304688 1.210938 3.558594 L 6 12 L 1.191406 20.441406 C 1.046875 20.695312 1.046875 21.003906 1.191406 21.261719 C 1.328125 21.519531 1.585938 21.6875 1.878906 21.710938 L 6.878906 22.078125 L 7 22.078125 C 7.234375 22.082031 7.457031 21.988281 7.621094 21.820312 L 12 17.238281 L 16.421875 21.820312 C 16.582031 21.988281 16.804688 22.082031 17.039062 22.078125 L 17.101562 22.078125 L 22.101562 21.710938 C 22.390625 21.6875 22.652344 21.519531 22.789062 21.261719 C 22.933594 21.003906 22.933594 20.695312 22.789062 20.441406 Z M 17.230469 21.191406 L 16.230469 15.519531 L 21.808594 20.878906 L 17.269531 21.210938 Z M 12.230469 15.71875 L 12.929688 11.71875 L 13.058594 11.71875 L 15.269531 14.550781 C 15.199219 14.65625 15.160156 14.78125 15.160156 14.910156 Z M 7.480469 17.269531 C 7.402344 17.140625 7.28125 17.046875 7.140625 17 L 7.140625 12.421875 L 11.53125 15.921875 Z M 6.75 2.800781 L 7.328125 7.691406 L 2.21875 3.121094 L 6.75 2.789062 Z M 15.421875 7.878906 L 15.421875 7.949219 L 13.128906 10.421875 C 13.039062 10.375 12.941406 10.351562 12.839844 10.351562 C 12.660156 10.351562 12.488281 10.421875 12.359375 10.550781 L 8.359375 8.460938 Z M 17.238281 2.808594 L 21.738281 3.128906 L 16.441406 7.070312 L 16.378906 7.070312 Z M 15.890625 14.21875 C 15.808594 14.210938 15.730469 14.210938 15.648438 14.21875 L 13.441406 11.390625 C 13.519531 11.277344 13.5625 11.140625 13.558594 11 C 13.5625 10.882812 13.53125 10.769531 13.46875 10.671875 L 15.761719 8.199219 C 15.835938 8.246094 15.914062 8.277344 16 8.300781 L 16.808594 12 L 15.929688 14.238281 Z M 11.890625 15.628906 L 7.511719 12.128906 L 12.300781 11.359375 C 12.363281 11.484375 12.464844 11.585938 12.589844 11.648438 Z M 7.71875 9 C 7.867188 8.984375 8.003906 8.910156 8.101562 8.800781 L 12.191406 10.929688 L 7.191406 11.730469 Z M 6.488281 18.199219 C 6.554688 18.257812 6.636719 18.296875 6.71875 18.320312 L 6.71875 21.210938 L 2.25 20.890625 Z M 21.699219 20.199219 L 16.5 15.199219 C 16.550781 15.109375 16.578125 15.003906 16.578125 14.898438 C 16.578125 14.691406 16.484375 14.496094 16.320312 14.371094 L 17.171875 12.230469 Z M 17.191406 11.710938 L 16.398438 8.199219 C 16.613281 8.078125 16.742188 7.855469 16.738281 7.609375 C 16.753906 7.539062 16.753906 7.460938 16.738281 7.390625 L 21.808594 3.601562 Z M 16.761719 3.039062 L 16 6.929688 C 15.710938 6.960938 15.476562 7.167969 15.410156 7.449219 L 12.289062 7.710938 Z M 11.761719 7.738281 L 8.238281 8.039062 C 8.152344 7.828125 7.964844 7.675781 7.738281 7.628906 L 7.210938 3 Z M 2.25 3.738281 L 7 8 C 6.960938 8.089844 6.941406 8.183594 6.941406 8.28125 C 6.941406 8.535156 7.082031 8.769531 7.308594 8.890625 L 6.808594 11.679688 Z M 6.730469 12.390625 L 6.730469 17.019531 C 6.441406 17.113281 6.25 17.378906 6.25 17.679688 C 6.246094 17.738281 6.246094 17.800781 6.25 17.859375 L 2.148438 20.46875 Z M 7.171875 21 L 7.171875 18.308594 C 7.449219 18.214844 7.632812 17.953125 7.628906 17.660156 L 11.699219 16.328125 Z M 12.171875 16.179688 L 15.308594 15.28125 C 15.421875 15.441406 15.59375 15.550781 15.789062 15.578125 L 16.789062 20.941406 Z M 12.171875 16.179688 "/>
</g>
</svg>
