<svg id="Layer_1" data-name="Layer 1" xmlns="http://www.w3.org/2000/svg" xmlns:xlink="http://www.w3.org/1999/xlink" viewBox="0 0 114 30"><defs><style>.cls-1{fill:url(#linear-gradient);}.cls-2{fill:#0d142d;}</style><linearGradient id="linear-gradient" x1="7.99" y1="31.97" x2="27.59" y2="-1.97" gradientUnits="userSpaceOnUse"><stop offset="0" stop-color="#1f65f4"/><stop offset="0.09" stop-color="#2863f4"/><stop offset="0.49" stop-color="#5059f6"/><stop offset="0.8" stop-color="#6852f7"/><stop offset="1" stop-color="#7150f7"/></linearGradient></defs><path class="cls-1" d="M26.48,15,33.41,2.8a1.23,1.23,0,0,0-1-1.84L25.15.43h-.09a1.23,1.23,0,0,0-.88.38L17.79,7.43,11.39.81a1.23,1.23,0,0,0-.88-.38h-.09L3.14,1a1.22,1.22,0,0,0-1,.65,1.23,1.23,0,0,0,0,1.19L9.09,15,2.16,27.2a1.23,1.23,0,0,0,0,1.19,1.22,1.22,0,0,0,1,.65l7.28.53h.09a1.23,1.23,0,0,0,.88-.38l6.4-6.62,6.39,6.62a1.23,1.23,0,0,0,.88.38h.09L32.43,29a1.23,1.23,0,0,0,1-1.84ZM25.37,28.28l-1.5-8.19,8.06,7.75-6.56.48Zm-7.2-7.91,1-5.77.2,0,3.2,4.09a.88.88,0,0,0-.17.53Zm-6.91,2.24a1,1,0,0,0-.49-.36l0-6.61,6.34,5.05ZM10.2,1.7,11,8.77l-.07,0L3.65,2.16l6.55-.48ZM22.72,9l.06.1-3.32,3.57a1,1,0,0,0-.42-.09,1,1,0,0,0-.7.28l-5.8-3Zm2.64-7.32s0,0,0,0l6.5.48L24.22,7.85l-.09-.06Zm-2,16.49a1,1,0,0,0-.34.06l-3.19-4.1a1,1,0,0,0,.17-.56,1,1,0,0,0-.13-.48l3.32-3.57a.85.85,0,0,0,.32.09L24.74,15l-1.28,3.23Zm-5.83,2-6.33-5,6.92-1.12a1,1,0,0,0,.42.42Zm-6-9.58a1,1,0,0,0,.57-.28l5.9,3.07h0l-7.17,1.17ZM9.83,24a.92.92,0,0,0,.32.18l0,4.18-6.46-.47Zm22,2.91L24.3,19.64a1.05,1.05,0,0,0,.1-.44,1,1,0,0,0-.37-.76l1.23-3.1ZM25.29,14.6,24.15,9.51a1,1,0,0,0,.49-.85.87.87,0,0,0-.06-.32L32,2.86ZM24.67,2.07l-1.14,5.6a1,1,0,0,0-.86.76l-4.51.38ZM17.46,8.86l-5.08.43a1,1,0,0,0-.73-.6L10.86,2ZM3.72,3.05l6.83,6.21a1,1,0,0,0-.09.41,1,1,0,0,0,.53.88l-.72,4Zm6.48,12.5,0,6.7a1,1,0,0,0-.7.94,1.09,1.09,0,0,0,0,.26L3.56,27.24ZM10.81,28l0-3.89a1,1,0,0,0,.68-.93l5.88-1.92Zm7.22-7,4.54-1.29a1,1,0,0,0,.7.43l1.41,7.75Z"/><path class="cls-2" d="M42.87,10.81h-.93a.58.58,0,0,0-.59.59v9.15a.59.59,0,0,0,.17.42.57.57,0,0,0,.42.16h.93a.5.5,0,0,0,.41-.17.59.59,0,0,0,.15-.41V11.4a.6.6,0,0,0-.15-.42A.55.55,0,0,0,42.87,10.81Z"/><path class="cls-2" d="M43,7H41.79a.57.57,0,0,0-.42.16.57.57,0,0,0-.17.42v1a.58.58,0,0,0,.59.59H43a.58.58,0,0,0,.59-.59v-1a.59.59,0,0,0-.17-.42A.57.57,0,0,0,43,7Z"/><path class="cls-2" d="M53.4,11.19a4.11,4.11,0,0,0-2.21-.57,3.83,3.83,0,0,0-3.08,1.24V11.4a.58.58,0,0,0-.59-.59h-.91a.59.59,0,0,0-.42.17.57.57,0,0,0-.16.42v9.15a.58.58,0,0,0,.16.42.57.57,0,0,0,.42.16h1A.57.57,0,0,0,48,21a.58.58,0,0,0,.16-.42V15.2a2.86,2.86,0,0,1,.69-2,2.42,2.42,0,0,1,1.82-.72,2.27,2.27,0,0,1,1.82.72,3,3,0,0,1,.62,2v5.35a.59.59,0,0,0,.17.42.57.57,0,0,0,.42.16h1a.54.54,0,0,0,.42-.17.59.59,0,0,0,.15-.41V15.1a5.51,5.51,0,0,0-.46-2.33A3.58,3.58,0,0,0,53.4,11.19Z"/><path class="cls-2" d="M59.24,10.81h-.93a.59.59,0,0,0-.42.17.57.57,0,0,0-.16.42v9.15a.58.58,0,0,0,.16.42.57.57,0,0,0,.42.16h.93a.5.5,0,0,0,.41-.17.6.6,0,0,0,.16-.41V11.4a.61.61,0,0,0-.16-.42A.53.53,0,0,0,59.24,10.81Z"/><path class="cls-2" d="M59.37,7H58.16a.57.57,0,0,0-.42.16.57.57,0,0,0-.17.42v1a.58.58,0,0,0,.59.59h1.21A.58.58,0,0,0,60,8.63v-1a.59.59,0,0,0-.17-.42A.57.57,0,0,0,59.37,7Z"/><path class="cls-2" d="M67.79,19.27H66.61a1,1,0,0,1-1-.46,2.58,2.58,0,0,1-.29-1.35V12.64H67.6a.58.58,0,0,0,.59-.59V11.4a.58.58,0,0,0-.59-.59H65.35V7.73a.58.58,0,0,0-.59-.59h-.91a.57.57,0,0,0-.41.17.54.54,0,0,0-.17.42v3.08H61.9a.61.61,0,0,0-.42.17.57.57,0,0,0-.16.42v.65a.57.57,0,0,0,.16.42.61.61,0,0,0,.42.17h1.37v4.95a4.8,4.8,0,0,0,.32,1.86,2.47,2.47,0,0,0,1,1.25,3.47,3.47,0,0,0,1.83.43h1.33a.57.57,0,0,0,.42-.16.59.59,0,0,0,.17-.42v-.7a.59.59,0,0,0-.17-.42A.57.57,0,0,0,67.79,19.27Z"/><path class="cls-2" d="M81.87,7.33h-1a.56.56,0,0,0-.44.17.93.93,0,0,0-.17.22l-4,7.56-4-7.55a.77.77,0,0,0-.17-.24.65.65,0,0,0-.45-.16h-1a.58.58,0,0,0-.58.61V20.55a.55.55,0,0,0,.17.42.56.56,0,0,0,.41.16h1a.57.57,0,0,0,.42-.16.59.59,0,0,0,.17-.42V11.64l3,5.77a1.11,1.11,0,0,0,.29.35.85.85,0,0,0,.48.13h.59a.76.76,0,0,0,.75-.48l3-5.77v8.91a.57.57,0,0,0,.17.42.57.57,0,0,0,.42.16h1a.61.61,0,0,0,.44-.16.58.58,0,0,0,.16-.42V7.94a.6.6,0,0,0-.16-.44A.62.62,0,0,0,81.87,7.33Z"/><path class="cls-2" d="M91.86,7.85a.83.83,0,0,0-.26-.37.75.75,0,0,0-.49-.15H89.8a.76.76,0,0,0-.5.15,1.1,1.1,0,0,0-.25.37L84.26,20.34v0a1,1,0,0,0,0,.23.55.55,0,0,0,.16.38.53.53,0,0,0,.37.15h1A.64.64,0,0,0,86.2,21a.61.61,0,0,0,.16-.27l1-2.65h6.14l1,2.66a.91.91,0,0,0,.18.25.55.55,0,0,0,.44.16h1a.51.51,0,0,0,.37-.15.51.51,0,0,0,.16-.38.66.66,0,0,0-.05-.26Zm1,8.27h-4.8l2.4-6.31Z"/><path class="cls-2" d="M108.82,20.42a.35.35,0,0,0-.08-.15l-4.34-6.13,4.1-6a.64.64,0,0,0,.1-.33.55.55,0,0,0-.53-.53H107a.6.6,0,0,0-.38.12.68.68,0,0,0-.24.27l-3.26,4.66L99.81,7.73a1.16,1.16,0,0,0-.25-.28.61.61,0,0,0-.39-.12H98a.52.52,0,0,0-.37.16.5.5,0,0,0-.16.37.73.73,0,0,0,.08.34l4.15,5.92-4.37,6.17,0,.11a.48.48,0,0,0,0,.2.5.5,0,0,0,.17.38.55.55,0,0,0,.38.15h1.12a.6.6,0,0,0,.4-.13,1.32,1.32,0,0,0,.23-.24L103,15.91l3.48,4.86a1.36,1.36,0,0,0,.24.24.65.65,0,0,0,.39.12h1.18a.56.56,0,0,0,.39-.15.55.55,0,0,0,.16-.38A.57.57,0,0,0,108.82,20.42Z"/></svg>