<?xml version="1.0" encoding="UTF-8"?>
<svg xmlns="http://www.w3.org/2000/svg" xmlns:xlink="http://www.w3.org/1999/xlink" width="91px" height="24px" viewBox="0 0 91 24" version="1.1">
<g id="surface1">
<path style=" stroke:none;fill-rule:nonzero;fill:rgb(100%,100%,100%);fill-opacity:1;" d="M 20.691406 12 L 26.261719 2.210938 C 26.417969 1.914062 26.417969 1.558594 26.261719 1.261719 C 26.101562 0.964844 25.804688 0.769531 25.46875 0.738281 L 19.628906 0.308594 L 19.558594 0.308594 C 19.292969 0.3125 19.035156 0.417969 18.851562 0.609375 L 13.71875 5.921875 L 8.589844 0.609375 C 8.402344 0.417969 8.148438 0.3125 7.878906 0.308594 L 7.808594 0.308594 L 2 0.738281 C 1.664062 0.769531 1.367188 0.964844 1.210938 1.261719 C 1.050781 1.558594 1.050781 1.914062 1.210938 2.210938 L 6.738281 12 L 1.179688 21.789062 C 1.019531 22.089844 1.023438 22.453125 1.1875 22.75 C 1.355469 23.046875 1.660156 23.238281 2 23.261719 L 7.839844 23.691406 L 7.910156 23.691406 C 8.175781 23.6875 8.433594 23.582031 8.621094 23.390625 L 13.75 18.078125 L 18.878906 23.390625 C 19.066406 23.582031 19.324219 23.6875 19.589844 23.691406 L 19.660156 23.691406 L 25.5 23.261719 C 25.835938 23.230469 26.132812 23.035156 26.289062 22.738281 C 26.449219 22.441406 26.449219 22.085938 26.289062 21.789062 Z M 19.800781 22.660156 L 18.609375 16.078125 L 25.070312 22.300781 L 19.800781 22.691406 Z M 14 16.308594 L 14.808594 11.679688 L 14.96875 11.679688 L 17.53125 14.960938 C 17.445312 15.085938 17.402344 15.230469 17.398438 15.378906 Z M 8.449219 18.109375 C 8.359375 17.96875 8.21875 17.867188 8.058594 17.820312 L 8.058594 12.511719 L 13.148438 16.511719 Z M 7.628906 1.320312 L 8.308594 7 L 8.25 7 L 2.378906 1.699219 L 7.628906 1.308594 Z M 17.679688 7.21875 C 17.679688 7.21875 17.679688 7.21875 17.679688 7.300781 L 15.019531 10.160156 C 14.914062 10.117188 14.804688 10.09375 14.691406 10.089844 C 14.480469 10.089844 14.277344 10.171875 14.128906 10.320312 L 9.511719 7.898438 Z M 19.800781 1.339844 L 25 1.691406 L 18.878906 6.261719 L 18.808594 6.261719 Z M 18.230469 14.570312 C 18.136719 14.554688 18.042969 14.554688 17.949219 14.570312 L 15.390625 11.289062 C 15.480469 11.15625 15.53125 11 15.53125 10.839844 C 15.527344 10.703125 15.492188 10.570312 15.429688 10.449219 L 18.078125 7.589844 C 18.164062 7.625 18.25 7.644531 18.339844 7.648438 L 19.339844 11.929688 L 18.339844 14.53125 Z M 13.550781 16.199219 L 8.46875 12.199219 L 14.019531 11.300781 C 14.09375 11.445312 14.207031 11.5625 14.351562 11.640625 Z M 8.75 8.511719 C 8.921875 8.492188 9.082031 8.414062 9.199219 8.289062 L 13.941406 10.761719 L 8.179688 11.691406 Z M 7.328125 19.191406 C 7.410156 19.257812 7.5 19.304688 7.601562 19.328125 L 7.601562 22.691406 L 2.421875 22.308594 Z M 25 21.519531 L 19 15.71875 C 19.054688 15.613281 19.085938 15.492188 19.089844 15.371094 C 19.085938 15.132812 18.976562 14.910156 18.789062 14.761719 L 19.789062 12.28125 Z M 19.769531 11.679688 L 18.828125 7.601562 C 19.070312 7.453125 19.21875 7.191406 19.21875 6.910156 C 19.230469 6.828125 19.230469 6.742188 19.21875 6.660156 L 25.101562 2.25 Z M 19.269531 1.679688 L 18.359375 6.171875 C 18.023438 6.207031 17.75 6.453125 17.671875 6.78125 L 14 7 Z M 13.460938 7.078125 L 9.378906 7.421875 C 9.28125 7.171875 9.0625 6.992188 8.800781 6.941406 L 8.160156 1.589844 Z M 2.460938 2.410156 L 7.941406 7.410156 C 7.898438 7.511719 7.875 7.621094 7.871094 7.730469 C 7.871094 8.027344 8.03125 8.296875 8.289062 8.441406 L 7.71875 11.671875 Z M 7.660156 12.410156 L 7.660156 17.78125 C 7.332031 17.890625 7.109375 18.195312 7.101562 18.539062 C 7.09375 18.609375 7.09375 18.679688 7.101562 18.75 L 2.339844 21.75 Z M 8.148438 22.410156 L 8.148438 19.289062 C 8.472656 19.179688 8.6875 18.878906 8.691406 18.539062 L 13.351562 17 Z M 13.941406 16.820312 L 17.589844 15.820312 C 17.722656 16.003906 17.925781 16.128906 18.148438 16.160156 L 19.28125 22.378906 Z M 13.941406 16.820312 "/>
<path style=" stroke:none;fill-rule:nonzero;fill:rgb(100%,100%,100%);fill-opacity:1;" d="M 33.851562 8.640625 L 33.101562 8.640625 C 32.976562 8.636719 32.855469 8.683594 32.769531 8.769531 C 32.679688 8.859375 32.628906 8.980469 32.628906 9.109375 L 32.628906 16.449219 C 32.628906 16.578125 32.679688 16.699219 32.769531 16.789062 C 32.855469 16.878906 32.976562 16.925781 33.101562 16.921875 L 33.851562 16.921875 C 33.976562 16.929688 34.097656 16.875 34.179688 16.78125 C 34.261719 16.691406 34.304688 16.570312 34.300781 16.449219 L 34.300781 9.109375 C 34.304688 8.984375 34.261719 8.863281 34.179688 8.769531 C 34.09375 8.679688 33.972656 8.632812 33.851562 8.640625 Z M 33.851562 8.640625 "/>
<path style=" stroke:none;fill-rule:nonzero;fill:rgb(100%,100%,100%);fill-opacity:1;" d="M 34 5.578125 L 33 5.578125 C 32.871094 5.578125 32.75 5.628906 32.660156 5.71875 C 32.570312 5.808594 32.523438 5.933594 32.53125 6.058594 L 32.53125 6.890625 C 32.523438 7.015625 32.570312 7.140625 32.660156 7.230469 C 32.75 7.316406 32.875 7.363281 33 7.359375 L 34 7.359375 C 34.125 7.363281 34.242188 7.316406 34.328125 7.230469 C 34.421875 7.140625 34.472656 7.019531 34.46875 6.890625 L 34.46875 6.058594 C 34.472656 5.933594 34.421875 5.808594 34.328125 5.71875 C 34.242188 5.628906 34.125 5.578125 34 5.578125 Z M 34 5.578125 "/>
<path style=" stroke:none;fill-rule:nonzero;fill:rgb(100%,100%,100%);fill-opacity:1;" d="M 42.300781 8.941406 C 41.246094 8.367188 39.988281 8.328125 38.898438 8.828125 C 38.578125 8.992188 38.292969 9.214844 38.050781 9.480469 L 38.050781 9.109375 C 38.054688 8.984375 38.007812 8.859375 37.921875 8.769531 C 37.828125 8.683594 37.707031 8.636719 37.578125 8.640625 L 36.851562 8.640625 C 36.726562 8.636719 36.605469 8.683594 36.519531 8.769531 C 36.429688 8.859375 36.378906 8.980469 36.378906 9.109375 L 36.378906 16.449219 C 36.378906 16.578125 36.429688 16.699219 36.519531 16.789062 C 36.605469 16.878906 36.726562 16.925781 36.851562 16.921875 L 37.628906 16.921875 C 37.753906 16.925781 37.875 16.878906 37.960938 16.789062 C 38.050781 16.699219 38.101562 16.578125 38.101562 16.449219 L 38.101562 12.160156 C 38.0625 11.570312 38.261719 10.988281 38.648438 10.539062 C 39.039062 10.160156 39.570312 9.964844 40.109375 10 C 40.65625 9.960938 41.195312 10.171875 41.570312 10.570312 C 41.925781 11.03125 42.105469 11.605469 42.070312 12.191406 L 42.070312 16.480469 C 42.0625 16.605469 42.113281 16.730469 42.203125 16.820312 C 42.289062 16.90625 42.414062 16.957031 42.539062 16.949219 L 43.308594 16.949219 C 43.4375 16.957031 43.5625 16.90625 43.648438 16.808594 C 43.730469 16.71875 43.773438 16.601562 43.769531 16.480469 L 43.769531 12.078125 C 43.785156 11.4375 43.65625 10.800781 43.398438 10.210938 C 43.167969 9.6875 42.785156 9.246094 42.300781 8.941406 Z M 42.300781 8.941406 "/>
<path style=" stroke:none;fill-rule:nonzero;fill:rgb(100%,100%,100%);fill-opacity:1;" d="M 47 8.640625 L 46.25 8.640625 C 46.125 8.632812 46.007812 8.679688 45.921875 8.769531 C 45.828125 8.859375 45.777344 8.980469 45.78125 9.109375 L 45.78125 16.449219 C 45.777344 16.578125 45.828125 16.699219 45.921875 16.789062 C 46.007812 16.878906 46.125 16.925781 46.25 16.921875 L 47 16.921875 C 47.125 16.925781 47.246094 16.875 47.328125 16.78125 C 47.410156 16.691406 47.457031 16.570312 47.449219 16.449219 L 47.449219 9.109375 C 47.453125 8.984375 47.410156 8.863281 47.328125 8.769531 C 47.242188 8.683594 47.125 8.636719 47 8.640625 Z M 47 8.640625 "/>
<path style=" stroke:none;fill-rule:nonzero;fill:rgb(100%,100%,100%);fill-opacity:1;" d="M 47.089844 5.578125 L 46.089844 5.578125 C 45.960938 5.578125 45.839844 5.628906 45.75 5.71875 C 45.660156 5.808594 45.613281 5.933594 45.621094 6.058594 L 45.621094 6.890625 C 45.613281 7.015625 45.660156 7.140625 45.75 7.230469 C 45.839844 7.316406 45.964844 7.367188 46.089844 7.359375 L 47.089844 7.359375 C 47.214844 7.367188 47.339844 7.316406 47.429688 7.230469 C 47.519531 7.140625 47.566406 7.015625 47.558594 6.890625 L 47.558594 6.058594 C 47.566406 5.933594 47.519531 5.808594 47.429688 5.71875 C 47.339844 5.628906 47.21875 5.578125 47.089844 5.578125 Z M 47.089844 5.578125 "/>
<path style=" stroke:none;fill-rule:nonzero;fill:rgb(100%,100%,100%);fill-opacity:1;" d="M 53.851562 15.421875 L 52.851562 15.421875 C 52.542969 15.453125 52.242188 15.316406 52.070312 15.058594 C 51.921875 14.726562 51.859375 14.363281 51.890625 14 L 51.890625 10.101562 L 53.691406 10.101562 C 53.800781 10.105469 53.914062 10.070312 54 10 C 54.09375 9.910156 54.144531 9.789062 54.140625 9.660156 L 54.140625 9.109375 C 54.144531 8.980469 54.09375 8.859375 54 8.769531 C 53.910156 8.679688 53.785156 8.632812 53.660156 8.640625 L 51.859375 8.640625 L 51.859375 6.160156 C 51.855469 5.902344 51.648438 5.695312 51.390625 5.691406 L 50.660156 5.691406 C 50.53125 5.6875 50.410156 5.738281 50.320312 5.828125 C 50.230469 5.917969 50.183594 6.035156 50.191406 6.160156 L 50.191406 8.640625 L 49.089844 8.640625 C 48.964844 8.636719 48.847656 8.683594 48.761719 8.769531 C 48.667969 8.859375 48.617188 8.980469 48.621094 9.109375 L 48.621094 9.628906 C 48.617188 9.757812 48.667969 9.882812 48.761719 9.96875 C 48.847656 10.058594 48.964844 10.105469 49.089844 10.101562 L 50.191406 10.101562 L 50.191406 14.101562 C 50.179688 14.609375 50.261719 15.113281 50.441406 15.589844 C 50.605469 16.003906 50.898438 16.355469 51.28125 16.589844 C 51.730469 16.839844 52.238281 16.960938 52.75 16.941406 L 53.820312 16.941406 C 53.945312 16.945312 54.070312 16.898438 54.160156 16.808594 C 54.25 16.71875 54.296875 16.597656 54.289062 16.46875 L 54.289062 15.910156 C 54.292969 15.785156 54.246094 15.667969 54.160156 15.578125 C 54.082031 15.488281 53.96875 15.433594 53.851562 15.421875 Z M 53.851562 15.421875 "/>
<path style=" stroke:none;fill-rule:nonzero;fill:rgb(100%,100%,100%);fill-opacity:1;" d="M 65.140625 5.851562 L 64.378906 5.851562 C 64.238281 5.835938 64.09375 5.890625 64 6 C 63.949219 6.054688 63.90625 6.113281 63.871094 6.179688 L 60.671875 12.238281 L 57.519531 6.171875 C 57.488281 6.09375 57.441406 6.023438 57.378906 5.96875 C 57.277344 5.875 57.136719 5.832031 57 5.851562 L 56.21875 5.851562 C 56.09375 5.847656 55.972656 5.894531 55.878906 5.980469 C 55.792969 6.078125 55.75 6.203125 55.75 6.328125 L 55.75 16.449219 C 55.75 16.574219 55.792969 16.699219 55.878906 16.789062 C 55.972656 16.878906 56.09375 16.925781 56.21875 16.921875 L 57 16.921875 C 57.125 16.925781 57.25 16.878906 57.339844 16.789062 C 57.429688 16.699219 57.476562 16.578125 57.46875 16.449219 L 57.46875 9.300781 L 59.839844 13.929688 C 59.894531 14.039062 59.972656 14.136719 60.070312 14.210938 C 60.183594 14.285156 60.320312 14.324219 60.460938 14.320312 L 61 14.320312 C 61.132812 14.320312 61.261719 14.285156 61.371094 14.210938 C 61.472656 14.144531 61.550781 14.042969 61.589844 13.929688 L 63.910156 9.300781 L 63.910156 16.449219 C 63.90625 16.578125 63.957031 16.699219 64.050781 16.789062 C 64.136719 16.878906 64.257812 16.925781 64.378906 16.921875 L 65.140625 16.921875 C 65.273438 16.929688 65.402344 16.882812 65.5 16.789062 C 65.589844 16.699219 65.636719 16.578125 65.628906 16.449219 L 65.628906 6.328125 C 65.628906 6.207031 65.582031 6.089844 65.5 6 C 65.40625 5.902344 65.277344 5.847656 65.140625 5.851562 Z M 65.140625 5.851562 "/>
<path style=" stroke:none;fill-rule:nonzero;fill:rgb(100%,100%,100%);fill-opacity:1;" d="M 73.171875 6.261719 C 73.136719 6.160156 73.078125 6.070312 73 6 C 72.890625 5.914062 72.757812 5.871094 72.621094 5.878906 L 71.511719 5.878906 C 71.367188 5.871094 71.226562 5.914062 71.109375 6 C 71.023438 6.082031 70.953125 6.179688 70.910156 6.289062 L 67.070312 16.289062 C 67.066406 16.351562 67.066406 16.417969 67.070312 16.480469 C 67.074219 16.59375 67.121094 16.699219 67.199219 16.78125 C 67.28125 16.859375 67.386719 16.902344 67.5 16.898438 L 68.289062 16.898438 C 68.421875 16.90625 68.550781 16.863281 68.648438 16.78125 C 68.710938 16.722656 68.757812 16.652344 68.78125 16.570312 L 69.609375 14.441406 L 74.5 14.441406 L 75.328125 16.570312 C 75.359375 16.644531 75.40625 16.710938 75.460938 16.769531 C 75.554688 16.863281 75.6875 16.914062 75.820312 16.898438 L 76.609375 16.898438 C 76.824219 16.890625 76.996094 16.714844 77 16.5 C 77.015625 16.429688 77.015625 16.359375 77 16.289062 Z M 74 12.898438 L 70.109375 12.898438 L 72 7.828125 Z M 74 12.898438 "/>
<path style=" stroke:none;fill-rule:nonzero;fill:rgb(100%,100%,100%);fill-opacity:1;" d="M 86.769531 16.351562 C 86.761719 16.304688 86.738281 16.265625 86.710938 16.230469 L 83.230469 11.308594 L 86.511719 6.539062 C 86.566406 6.460938 86.59375 6.367188 86.589844 6.269531 C 86.59375 6.15625 86.550781 6.050781 86.46875 5.96875 C 86.390625 5.890625 86.28125 5.847656 86.171875 5.851562 L 85.289062 5.851562 C 85.179688 5.847656 85.070312 5.878906 84.980469 5.941406 C 84.898438 5.996094 84.832031 6.070312 84.789062 6.160156 L 82.171875 9.898438 L 79.539062 6.171875 C 79.488281 6.082031 79.421875 6.003906 79.339844 5.941406 C 79.242188 5.871094 79.121094 5.835938 79 5.851562 L 78.101562 5.851562 C 77.988281 5.847656 77.878906 5.890625 77.800781 5.96875 C 77.71875 6.050781 77.675781 6.15625 77.671875 6.269531 C 77.667969 6.363281 77.695312 6.457031 77.738281 6.539062 L 81.070312 11.289062 L 77.558594 16.289062 L 77.558594 16.378906 C 77.550781 16.433594 77.550781 16.488281 77.558594 16.539062 C 77.558594 16.652344 77.605469 16.761719 77.691406 16.839844 C 77.773438 16.917969 77.886719 16.960938 78 16.960938 L 78.898438 16.960938 C 79.015625 16.964844 79.128906 16.929688 79.21875 16.859375 L 79.410156 16.671875 L 82.179688 12.769531 L 84.96875 16.671875 C 85.027344 16.742188 85.097656 16.804688 85.171875 16.859375 C 85.257812 16.929688 85.367188 16.964844 85.480469 16.960938 L 86.480469 16.960938 C 86.59375 16.960938 86.707031 16.917969 86.789062 16.839844 C 86.867188 16.757812 86.910156 16.652344 86.910156 16.539062 C 86.882812 16.464844 86.835938 16.398438 86.769531 16.351562 Z M 86.769531 16.351562 "/>
</g>
</svg>
